<?xml version="1.0" encoding="utf-8"?>
<!-- Generator: Adobe Illustrator 18.0.0, SVG Export Plug-In . SVG Version: 6.00 Build 0)  -->
<!DOCTYPE svg PUBLIC "-//W3C//DTD SVG 1.1//EN" "http://www.w3.org/Graphics/SVG/1.1/DTD/svg11.dtd">
<svg version="1.1" id="Layer_1" xmlns="http://www.w3.org/2000/svg" xmlns:xlink="http://www.w3.org/1999/xlink" x="0px" y="0px"
	 width="1400px" height="980px" viewBox="0 0 1400 980" enable-background="new 0 0 1400 980" xml:space="preserve">
<rect fill="#F3F4F6" width="1400" height="980"/>
<g>
	<path fill="#EC6F64" d="M276.5,256.8l0,53.3l-99.6,0l0-15.2c28.9,0,42.3-23.8,42.3-23.8L276.5,256.8z"/>
	<path fill="#D7BF78" d="M276.5,256.8l136.3,0c11,0,19.9-8.9,19.9-19.9v0c0-11-8.9-19.9-19.9-19.9h-10.2c-11,0-19.9,8.9-19.9,19.9
		v7.4l-55.3,0v-7c0-40.2,32.6-72.8,72.8-72.8h16c40.2,0,72.8,32.6,72.8,72.8v0c0,40.2-32.6,72.8-72.8,72.8l-139.7,0L276.5,256.8z"/>
	<path fill="#D7BF78" d="M276.5,256.8l136.3,0c11,0,19.9-8.9,19.9-19.9v0c0-11-8.9-19.9-19.9-19.9h-10.2c-11,0-19.9,8.9-19.9,19.9
		v7.4l-55.3,0v-7c0-40.2,32.6-72.8,72.8-72.8h16c40.2,0,72.8,32.6,72.8,72.8v0c0,40.2-32.6,72.8-72.8,72.8l-139.7,0L276.5,256.8z"/>
	<polygon fill="#AA8E55" points="351.9,310.1 329.4,310.1 276.5,257.2 276.5,256.8 298.6,256.8 	"/>
	<path fill="#AA8E55" d="M362.5,244.3H340L327.6,232c0.5-6.5,1.8-12.7,3.8-18.6L362.5,244.3z"/>
	<path fill="#AA8E55" d="M427.4,309.2c-3.6,0.6-7.4,0.9-11.2,0.9h-10.5l-53.3-53.3H375L427.4,309.2z"/>
	<path fill="#AA8E55" d="M365.1,173.5l43.6,43.6l-6,0c-4.6,0-8.9,1.6-12.3,4.2l-38.5-38.5C355.9,179.3,360.3,176.2,365.1,173.5z"/>
	<path fill="#AA8E55" d="M473.6,282.1c-1.8,2.3-3.8,4.6-5.9,6.7c-1.6,1.6-3.4,3.2-5.2,4.7L423,254c4.7-2.9,8.2-7.6,9.3-13.2
		L473.6,282.1z"/>
	<path fill="#AA8E55" d="M489,237.3c0,2.1-0.1,4.2-0.3,6.3l-79.1-79.1h6.5c6.3,0,12.5,0.8,18.3,2.3l52.2,52.2
		C488.2,224.9,489,231,489,237.3z"/>
</g>
<g>
	<path fill="#D7BF78" d="M753,473.5l-159,0c-10,0-18.1-8.1-18.1-18.1V316.3c0-10,8.1-18.1,18.1-18.1l159,0c10,0,18.1,8.1,18.1,18.1
		v139.1C771.1,465.4,763,473.5,753,473.5z"/>
	<path fill="#D7BF78" d="M760.3,331.1l-183.8,0c-10,0-18.1-8.1-18.1-18.1v-17.2c0-10,8.1-18.1,18.1-18.1l195.8,0
		c10,0,18.1,8.1,18.1,18.1l0,17.2C790.3,323,770.3,331.1,760.3,331.1z"/>
	<rect x="576" y="331.1" fill="#AA8E55" width="195.1" height="12.1"/>
	<rect x="656.6" y="277.8" fill="#EC6F64" width="32.4" height="195.7"/>
	<g>
		<path fill="#EC6F64" d="M737,152.8c-30.7-2.1-52.4,22.3-60.8,49.5c-4.3,13.9-6,28.6-6.4,43.2c-0.1,3.3,0.1,39.2,1.9,39.2
			c51.2,1.4,101.7-33.9,103.7-87.6C776.4,172.5,762.1,154.6,737,152.8z M756.4,196.4c-0.9,24.5-14.3,40.5-25.4,49.5
			c-11.7,9.6-26.4,16-41.8,18.5c-0.2-7.8-0.3-16.1-0.2-18.4c0.4-14.8,2.2-27.3,5.5-38.1c5.1-16.7,18.3-36.1,38.8-36.1
			c0.8,0,1.6,0,2.4,0.1C753.5,173.2,756.8,185.9,756.4,196.4z"/>
		<path fill="#EC6F64" d="M569.4,197.1c2.1,53.7,52.6,89,103.7,87.6c1.8,0,2-35.9,1.9-39.2c-0.4-14.5-2.1-29.2-6.4-43.2
			c-8.3-27.2-30-51.6-60.8-49.5C582.8,154.6,568.4,172.5,569.4,197.1z M609.2,171.9c0.8,0,1.6-0.1,2.4-0.1
			c20.4,0,33.7,19.4,38.8,36.1c3.3,10.8,5.1,23.2,5.5,38.1c0.1,2.3,0,10.6-0.2,18.4c-15.4-2.5-30.1-9-41.8-18.5
			c-11.1-9.1-24.4-25-25.4-49.5C588.1,185.9,591.4,173.2,609.2,171.9z"/>
	</g>
</g>
<g>
	<path fill="#EC6F64" d="M406.2,473.5l-132.9,0c-19.2,0-34.7-15.5-34.7-34.7l0-40c0-19.2,15.5-34.7,34.7-34.7l132.9,0
		c19.2,0,34.7,15.5,34.7,34.7v40C440.9,458,425.4,473.5,406.2,473.5z"/>
	<path fill="#EC6F64" d="M518.1,418.8c0-5.7-3.4-10.6-8.3-12.9c1.8-3.5,2.9-7.9,2.9-13.2c0-14.2-7.5-28.5-31.4-28.5
		s-40.4,34.7-40.4,34.7v20v20c0,0,16.5,34.7,40.4,34.7c23.9,0,31.4-14.3,31.4-28.5c0-5.4-1.1-9.8-2.9-13.3
		C514.7,429.5,518.1,424.5,518.1,418.8z"/>
	<path fill="#EC6F64" d="M161.5,418.8c0-5.7,3.4-10.6,8.3-12.9c-1.8-3.5-2.9-7.9-2.9-13.2c0-14.2,7.5-28.5,31.4-28.5
		s40.4,34.7,40.4,34.7l0,20v20c0,0-16.5,34.7-40.4,34.7c-23.9,0-31.4-14.3-31.4-28.5c0-5.4,1.1-9.8,2.9-13.3
		C164.9,429.5,161.5,424.5,161.5,418.8z"/>
	<path fill="#EC6F64" d="M238.7,398.9l0,39.9c0,0-5.5,11.6-14.8,21.4l0-82.7C233.1,387.3,238.7,398.9,238.7,398.9z"/>
	<path fill="#D45953" d="M238.7,398.9l0,39.9c0,0-5.5,11.6-14.8,21.4l0-82.7C233.1,387.3,238.7,398.9,238.7,398.9z"/>
	<path fill="#D45953" d="M440.9,438.9v-39.9c0,0,5.5-11.6,14.8-21.4v82.7C446.4,450.5,440.9,438.9,440.9,438.9z"/>
</g>
<g>
	<rect x="905" y="196.4" fill="#EC6F64" width="25.9" height="59.3"/>
	<polygon fill="#818286" points="918.2,345.3 834.6,345.3 865.1,471.4 871.3,471.4 965.1,471.4 971.3,471.4 1001.7,345.3 	"/>
	<polygon fill="#7EAEA0" points="1001.7,345.3 997.4,363.3 839,363.3 834.6,345.3 	"/>
	<path fill="#90CCBC" d="M1014.8,328.6c0,0.1,0,0.1,0,0.2c0,9.2-7.7,16.5-16.9,16.5l-160.5,0c-9.2,0-16.9-7.3-16.9-16.5
		c0-0.1,0-0.1,0-0.2c0-22.8,18.5-41.3,41.3-41.3c2.5,0,4.9,0.2,7.2,0.6c6-21.3,25.5-36.9,48.7-36.9c23.2,0,42.7,15.6,48.7,36.9
		c2.3-0.4,4.7-0.6,7.2-0.6C996.3,287.3,1014.8,305.8,1014.8,328.6z"/>
	<polygon fill="#59595B" points="1001.7,345.3 997.4,363.3 839,363.3 834.6,345.3 	"/>
	<circle fill="#AA8E55" cx="918.2" cy="277.9" r="7.8"/>
	<circle fill="#AA8E55" cx="875" cy="310.6" r="7.8"/>
	<circle fill="#AA8E55" cx="964.7" cy="310.6" r="7.8"/>
	<path fill="#D7BC6E" d="M917.9,155.5c-14.8,20.2-10.6,28.1-5.7,31.3c3.5,2.2,7.9,2.3,11.4,0.1C928.5,183.8,932.6,176,917.9,155.5z"
		/>
</g>
<g>
	<g>
		<polygon fill="#EC6F64" points="422.5,818.9 181.7,818.9 302.1,568.1 302.1,568.1 		"/>
		<polygon fill="#EC6F64" points="422.5,818.9 181.7,818.9 217.2,745 226.1,726.3 270.9,633.2 279.8,614.5 302.1,568.1 315.6,596.3 
			321.1,607.6 348.2,664.1 353.7,675.4 380.8,732 386.2,743.3 413.4,799.9 418.8,811.2 		"/>
		<polygon fill="#D7BF78" points="321.1,607.6 270.9,633.2 279.8,614.5 315.6,596.3 		"/>
		<polygon fill="#D7BF78" points="353.7,675.4 217.2,745 226.1,726.3 348.2,664.1 		"/>
		<polygon fill="#D7BF78" points="386.2,743.3 238,818.9 210.3,818.9 380.8,732 		"/>
		<polygon fill="#D7BF78" points="418.8,811.2 403.7,818.9 376.1,818.9 413.4,799.9 		"/>
	</g>
	<circle fill="#EC6F64" cx="302.1" cy="568.1" r="11.4"/>
	<path fill="#EC6F64" d="M294.1,567c0,0,22.8,28.2,71,16.7s70.1,6.6,70.1,6.6l10.4-37.4c0,0-30.4-15-71.7,9.2
		C333.4,585.9,294.1,567,294.1,567z"/>
	<path fill="#EC6F64" d="M296,571.4c0,0,24.8,8.4,53.1-14.2c23.2-18.6,47-22.1,47-22.1l-2.3-17c0,0-26.4,1.5-45.5,26.9
		C327.5,572.5,296,571.4,296,571.4z"/>
</g>
<g>
	<polygon fill="#818286" points="496.1,597.1 677.2,545.9 677.2,767 496.1,818.9 	"/>
	<rect x="496.1" y="597.1" fill="#90CCBC" width="192.9" height="221.8"/>
	<polygon fill="#818286" points="594.2,657.4 606.8,696 647.4,696 614.5,719.9 627.1,758.5 594.2,734.7 561.4,758.5 573.9,719.9 
		541.1,696 581.7,696 	"/>
</g>
<g>
	<g>
		<path fill="#90CCBC" d="M1164.4,820l-5.5-2.3c0.3-0.7,28.3-69.7-1.2-188.2c-23.9-96.1,5.3-190.8,5.6-191.7l5.7,1.8
			c-0.3,0.9-29,94.1-5.5,188.5c15.7,63,15.1,111.7,11.9,141.5C1171.9,802,1164.7,819.3,1164.4,820z"/>
	</g>
	<path fill="#EC6F64" d="M1166.7,178c-62.3,0-112.6,50.3-103.2,116.9c8.3,59.3,73.3,118.2,94.9,136.3l-10.1,20h17l17,0l-9.8-20
		c21.8-18.1,87.4-77,96.3-136.3C1278.8,228.2,1229,178,1166.7,178z"/>
</g>
<g>
	<rect x="803.8" y="600.4" fill="#EC6F64" width="234.3" height="96.2"/>
	<rect x="750.5" y="696.6" fill="#EC6F64" width="337.7" height="122.3"/>
	<path fill="#D7BF78" d="M750.5,696.6v22.8v37.9c2,0.3,4.1,0.5,6.1,0.5c9.8,0,19.6-3.7,27.1-11.2c7.5-7.5,17.3-11.2,27.1-11.2
		c9.8,0,19.6,3.7,27.1,11.2c7.5,7.5,17.3,11.2,27.1,11.2c9.8,0,19.6-3.7,27.1-11.2c7.5-7.5,17.3-11.2,27.1-11.2
		c9.8,0,19.6,3.7,27.1,11.2c7.5,7.5,17.3,11.2,27.1,11.2s19.6-3.7,27.1-11.2c7.5-7.5,17.3-11.2,27.1-11.2c9.8,0,19.6,3.7,27.1,11.2
		c9.1,9.1,21.5,12.6,33.3,10.7v-37.9v-22.8L750.5,696.6z"/>
	<path fill="#D7BF78" d="M803.8,589.1V605v26.3c1.4,0.2,2.8,0.3,4.3,0.3c6.8,0,13.6-2.6,18.8-7.8c5.2-5.2,12-7.8,18.8-7.8
		c6.8,0,13.6,2.6,18.8,7.8c5.2,5.2,12,7.8,18.8,7.8c6.8,0,13.6-2.6,18.8-7.8c5.2-5.2,12-7.8,18.8-7.8c6.8,0,13.6,2.6,18.8,7.8
		c5.2,5.2,12,7.8,18.8,7.8c6.8,0,13.6-2.6,18.8-7.8c5.2-5.2,12-7.8,18.8-7.8c6.8,0,13.6,2.6,18.8,7.8c6.3,6.3,14.8,8.8,23,7.5V605
		v-15.8H803.8z"/>
	<g>
		<rect x="868.3" y="530.5" fill="#90CCBC" width="25.9" height="59.3"/>
		<path fill="#D7BC6E" d="M881.3,489.6c-14.8,20.2-10.6,28.1-5.7,31.3c3.5,2.2,7.9,2.3,11.4,0.1C891.9,518,896,510.1,881.3,489.6z"
			/>
		<rect x="946.7" y="530.5" fill="#90CCBC" width="25.9" height="59.3"/>
		<path fill="#D7BC6E" d="M959.7,489.6c-14.8,20.2-10.6,28.1-5.7,31.3c3.5,2.2,7.9,2.3,11.4,0.1C970.3,518,974.4,510.1,959.7,489.6z
			"/>
	</g>
</g>
</svg>
