<svg id="Calque_1" data-name="Calque 1" xmlns="http://www.w3.org/2000/svg" viewBox="0 0 100 100"><defs><style>.cls-1{fill:#15b9ed;}.cls-2,.cls-3{fill:#ee7065;}.cls-2{stroke:#1d1d1b;stroke-miterlimit:10;stroke-width:0.25px;}.cls-4{fill:#d8bf78;}.cls-5{fill:#90ccbc;}.cls-6{fill:#d6bc6f;}</style></defs><path class="cls-1" d="M30.53,86.11H11.6s-5.78,3-1.72,8.16H32.25C36.3,89.1,30.53,86.11,30.53,86.11Z"/><path class="cls-1" d="M32.25,94.67H9.88a.41.41,0,0,1-.32-.15,5.72,5.72,0,0,1-1.43-4.78,6.75,6.75,0,0,1,3.28-4,.41.41,0,0,1,.19,0H30.52a.37.37,0,0,1,.18,0,6.71,6.71,0,0,1,3.29,4,5.73,5.73,0,0,1-1.43,4.78A.36.36,0,0,1,32.25,94.67Zm1-4.76a5.86,5.86,0,0,0-2.78-3.4H11.71a5.89,5.89,0,0,0-2.78,3.41,4.79,4.79,0,0,0,1.15,3.94"/><path class="cls-1" d="M24.85,61.06H17.27a.42.42,0,0,1-.2-.05,7.71,7.71,0,1,1,8,0A.46.46,0,0,1,24.85,61.06Zm-7.45-.81h7.34a6.9,6.9,0,1,0-7.34,0Z"/><path class="cls-1" d="M25.15,75.51H17a.4.4,0,0,1-.34-.19.39.39,0,0,1,0-.39,13.72,13.72,0,0,0,.51-9.25.41.41,0,0,1,.08-.35.39.39,0,0,1,.32-.16h7.09a.41.41,0,0,1,.39.51,13.79,13.79,0,0,0,.52,9.25.41.41,0,0,1,0,.39A.42.42,0,0,1,25.15,75.51ZM17.6,74.7h6.93A14.55,14.55,0,0,1,24.09,66H18A14.55,14.55,0,0,1,17.6,74.7Z"/><path class="cls-1" d="M26.24,60.66H15.89a2.46,2.46,0,1,0,0,4.92H26.24a2.46,2.46,0,1,0,0-4.92Z"/><path class="cls-1" d="M26.24,66H15.89a2.87,2.87,0,1,1,0-5.73H26.24a2.87,2.87,0,1,1,0,5.73ZM15.89,61.06a2.06,2.06,0,1,0,0,4.11H26.24a2.06,2.06,0,0,0,0-4.11Z"/><path class="cls-1" d="M27.18,75.11H14.94s-1.92,1.52,0,3.8H27.18C29.11,76.62,27.18,75.11,27.18,75.11Z"/><path class="cls-1" d="M27.18,79.31H15a.4.4,0,0,1-.31-.14,3.34,3.34,0,0,1-.93-2.52,2.81,2.81,0,0,1,1-1.86A.38.38,0,0,1,15,74.7H27.19a.4.4,0,0,1,.25.09,2.86,2.86,0,0,1,1,1.86,3.35,3.35,0,0,1-.94,2.52A.41.41,0,0,1,27.18,79.31Zm-12-.81H27a2.51,2.51,0,0,0,.64-1.77,2,2,0,0,0-.6-1.22H15.11a2.06,2.06,0,0,0-.6,1.22A2.45,2.45,0,0,0,15.14,78.5Z"/><path class="cls-1" d="M30.53,86.51H11.6a.41.41,0,0,1-.37-.58l3.35-7.2a.4.4,0,0,1,.36-.23H27.18a.39.39,0,0,1,.36.23l3.35,7.2a.39.39,0,0,1,0,.39A.36.36,0,0,1,30.53,86.51ZM12.24,85.7H29.89l-3-6.39H15.21Z"/><path class="cls-1" d="M34.62,97.31H7.51a.41.41,0,0,1-.41-.41.41.41,0,0,1,.41-.41H34.62a.41.41,0,0,1,0,.82Z"/><path class="cls-2" d="M36.06,52a1,1,0,0,1-.58-.18A1.05,1.05,0,0,1,35,51V26.65A18.53,18.53,0,0,1,53.53,8.14h25a18.51,18.51,0,1,1,0,37H53.73L36.44,52A1.73,1.73,0,0,1,36.06,52ZM53.53,10.19A16.47,16.47,0,0,0,37.09,26.63V49.47l16.08-6.32a.87.87,0,0,1,.38-.08h25a16.44,16.44,0,1,0,0-32.88Z"/><rect class="cls-3" x="54.89" y="21.86" width="19.13" height="7.85"/><rect class="cls-3" x="50.54" y="29.71" width="27.57" height="9.98"/><path class="cls-4" d="M50.54,29.71v5a4,4,0,0,0,.49,0,3.12,3.12,0,0,0,2.22-.92,3.14,3.14,0,0,1,4.42,0,3.11,3.11,0,0,0,4.42,0,3.15,3.15,0,0,1,2.22-.91,3.11,3.11,0,0,1,2.21.91,3.11,3.11,0,0,0,4.42,0,3.15,3.15,0,0,1,2.22-.91,3.11,3.11,0,0,1,2.21.91,3.11,3.11,0,0,0,2.72.88v-5Z"/><path class="cls-4" d="M54.89,20.94v3.44a1.9,1.9,0,0,0,.35,0,2.18,2.18,0,0,0,1.53-.64,2.2,2.2,0,0,1,1.54-.64,2.18,2.18,0,0,1,1.53.64,2.2,2.2,0,0,0,1.54.64,2.18,2.18,0,0,0,1.53-.64,2.2,2.2,0,0,1,1.54-.64,2.18,2.18,0,0,1,1.53.64,2.16,2.16,0,0,0,3.07,0,2.18,2.18,0,0,1,1.53-.64,2.2,2.2,0,0,1,1.54.64,2.16,2.16,0,0,0,1.88.61V21H54.89Z"/><rect class="cls-5" x="60.15" y="16.15" width="2.11" height="4.84"/><path class="cls-6" d="M61.21,12.81c-1.21,1.65-.86,2.3-.46,2.56a.87.87,0,0,0,.93,0C62.08,15.13,62.41,14.49,61.21,12.81Z"/><rect class="cls-5" x="66.55" y="16.15" width="2.11" height="4.84"/><path class="cls-6" d="M67.61,12.81c-1.21,1.65-.86,2.3-.46,2.56a.87.87,0,0,0,.93,0C68.48,15.13,68.81,14.49,67.61,12.81Z"/></svg>