<?xml version="1.0" encoding="utf-8"?>
<!-- Generator: Adobe Illustrator 16.0.0, SVG Export Plug-In . SVG Version: 6.00 Build 0)  -->
<!DOCTYPE svg PUBLIC "-//W3C//DTD SVG 1.1//EN" "http://www.w3.org/Graphics/SVG/1.1/DTD/svg11.dtd">
<svg version="1.1" id="Layer_1" xmlns="http://www.w3.org/2000/svg" xmlns:xlink="http://www.w3.org/1999/xlink" x="0px" y="0px"
	 width="1400px" height="1568px" viewBox="0 0 1400 1568" enable-background="new 0 0 1400 1568" xml:space="preserve">
<g>
	<g>
		<rect fill="#FFFFFF" width="1400" height="1568"/>
	</g>
	<g>
		<path fill="#009E6A" d="M610.5,577.5c10.9-22.7,18.9-47.1,23.5-72.6L559.4,470c0.4-5.3,0.7-10.6,0.7-15.9c0-5.4-0.3-10.7-0.7-15.9
			l74.6-34.9c-4.6-25.5-12.5-49.9-23.5-72.6l-80.9,15.7c-5.6-9.1-11.9-17.7-18.8-25.8l39.9-72c-18.4-17.6-39.1-32.8-61.7-45
			l-56.2,60.2c-9.8-4-19.9-7.3-30.4-9.8l-10.1-81.7c-12.5-1.7-25.2-2.6-38.2-2.6c-12.9,0-25.7,0.9-38.2,2.6L305.9,254
			c-10.5,2.5-20.6,5.8-30.4,9.8l-56.2-60.2c-22.6,12.2-43.3,27.4-61.7,45l39.9,72c-6.9,8.1-13.2,16.7-18.8,25.8l-80.9-15.7
			c-10.9,22.7-18.9,47.1-23.5,72.6l74.6,34.9c-0.4,5.3-0.7,10.6-0.7,15.9c0,5.4,0.3,10.7,0.7,15.9l-74.6,34.9
			c4.6,25.5,12.5,49.9,23.5,72.6l80.9-15.7c5.6,9.1,11.9,17.7,18.8,25.8l-39.9,72c18.4,17.6,39.1,32.8,61.7,44.9l56.2-60.2
			c9.8,4,19.9,7.3,30.3,9.8l10.1,81.7c12.5,1.7,25.2,2.6,38.2,2.6s25.7-1,38.2-2.6l10.1-81.7c10.4-2.5,20.6-5.8,30.3-9.8l56.2,60.2
			c22.6-12.2,43.3-27.4,61.7-44.9l-39.9-72.1c6.9-8.1,13.2-16.7,18.8-25.8L610.5,577.5z M354.2,585.8c-72.7,0-131.7-59-131.7-131.7
			c0-72.7,59-131.7,131.7-131.7c72.7,0,131.7,59,131.7,131.7C485.9,526.9,426.9,585.8,354.2,585.8z"/>
		<path d="M354.2,744.2c-12.6,0-25.7-0.9-38.9-2.7c-2.6-0.3-4.6-2.4-4.9-4.9l-9.6-77.8c-8.1-2.1-16.1-4.7-23.7-7.7l-53.6,57.4
			c-1.8,1.9-4.6,2.3-6.8,1.1c-22.8-12.3-43.9-27.7-62.9-45.8c-1.9-1.8-2.3-4.6-1-6.8l38-68.6c-5.3-6.5-10.2-13.2-14.7-20.1
			l-77.1,14.9c-2.5,0.5-5.1-0.8-6.2-3.1c-11.2-23.3-19.3-48.2-23.9-74.1c-0.5-2.5,0.9-5,3.2-6.1l71.1-33.2
			c-0.3-4.1-0.4-8.3-0.4-12.4c0-4.2,0.2-8.3,0.4-12.4l-71.1-33.2c-2.3-1.1-3.6-3.6-3.2-6.1c4.7-25.9,12.7-50.8,23.9-74.1
			c1.1-2.3,3.7-3.6,6.2-3.1l77.1,14.9c4.4-6.9,9.4-13.7,14.7-20.1l-38-68.6c-1.3-2.3-0.8-5.1,1-6.8c19-18.1,40.1-33.6,62.9-45.8
			c2.3-1.2,5.1-0.8,6.8,1.1l53.6,57.4c7.7-3,15.6-5.6,23.7-7.7l9.6-77.8c0.3-2.6,2.3-4.6,4.9-4.9c26.4-3.5,51.4-3.5,77.8,0
			c2.6,0.3,4.6,2.4,4.9,4.9l9.6,77.8c8.1,2.1,16.1,4.7,23.7,7.7l53.6-57.4c1.7-1.9,4.6-2.4,6.8-1.1c22.8,12.3,43.9,27.7,62.9,45.8
			c1.9,1.8,2.3,4.6,1,6.8l-38,68.6c5.3,6.5,10.2,13.2,14.7,20.1l77.1-14.9c2.5-0.5,5.1,0.8,6.2,3.1c11.2,23.3,19.3,48.2,24,74.1
			c0.5,2.5-0.9,5.1-3.2,6.1l-71.1,33.2c0.3,4.1,0.4,8.3,0.4,12.4c0,4.2-0.2,8.3-0.4,12.4l71.1,33.2c2.3,1.1,3.6,3.6,3.2,6.1
			c-4.7,25.9-12.7,50.8-24,74.1c-1.1,2.3-3.7,3.6-6.2,3.1l-77.1-14.9c-4.5,6.9-9.4,13.7-14.7,20.1l38,68.7c1.3,2.3,0.8,5.1-1,6.8
			c-19,18.1-40.1,33.6-62.9,45.8c-2.3,1.2-5.1,0.8-6.8-1.1l-53.6-57.4c-7.7,3-15.6,5.6-23.7,7.7l-9.6,77.8c-0.3,2.6-2.3,4.6-4.9,4.9
			C379.8,743.3,366.7,744.2,354.2,744.2z M321.1,730.9c22.5,2.7,43.6,2.7,66.2,0l9.6-77.3c0.3-2.3,2-4.3,4.3-4.8
			c10.1-2.4,20-5.6,29.5-9.6c2.2-0.9,4.7-0.4,6.3,1.4l53.2,57c19.2-10.7,37.1-23.8,53.5-39l-37.7-68.2c-1.1-2.1-0.9-4.6,0.7-6.4
			c6.8-7.9,12.9-16.4,18.3-25.1c1.2-2,3.6-3.1,5.9-2.6l76.6,14.8c9.2-19.9,16-41,20.3-62.9l-70.7-33c-2.1-1-3.4-3.2-3.2-5.6
			c0.4-5.1,0.7-10.3,0.7-15.5c0-5.2-0.3-10.4-0.7-15.5c-0.2-2.4,1.1-4.6,3.2-5.6l70.7-33c-4.3-21.9-11.1-43-20.3-62.9l-76.6,14.8
			c-2.3,0.5-4.7-0.6-5.9-2.6c-5.3-8.7-11.5-17.1-18.3-25c-1.5-1.8-1.8-4.4-0.7-6.4l37.7-68.2c-16.3-15.1-34.3-28.2-53.5-39l-53.2,57
			c-1.6,1.7-4.1,2.3-6.3,1.4c-9.4-3.9-19.3-7.1-29.5-9.6c-2.3-0.6-4-2.5-4.3-4.8l-9.5-77.3c-22.5-2.7-43.7-2.7-66.2,0l-9.6,77.3
			c-0.3,2.3-2,4.3-4.3,4.8c-10.2,2.4-20.1,5.7-29.5,9.6c-2.2,0.9-4.7,0.4-6.3-1.4l-53.2-57c-19.2,10.7-37.1,23.8-53.5,39l37.7,68.2
			c1.1,2.1,0.9,4.6-0.7,6.4c-6.8,7.9-12.9,16.4-18.3,25.1c-1.2,2-3.6,3.1-5.9,2.6l-76.6-14.8c-9.2,19.9-16,41-20.3,62.9l70.6,33
			c2.1,1,3.4,3.2,3.2,5.6c-0.4,5.1-0.7,10.3-0.7,15.5c0,5.2,0.3,10.4,0.7,15.5c0.2,2.3-1.1,4.6-3.3,5.6l-70.6,33
			c4.3,21.9,11.1,43,20.3,62.9l76.6-14.8c2.3-0.5,4.7,0.6,5.9,2.6c5.3,8.6,11.4,17.1,18.3,25.1c1.5,1.8,1.8,4.4,0.6,6.4l-37.7,68.2
			c16.3,15.1,34.3,28.2,53.5,39l53.2-57c1.6-1.7,4.1-2.3,6.3-1.4c9.4,3.9,19.3,7.1,29.5,9.6c2.3,0.6,4,2.5,4.3,4.8L321.1,730.9z
			 M354.2,591.5c-75.8,0-137.4-61.6-137.4-137.4c0-75.7,61.6-137.4,137.4-137.4c75.8,0,137.4,61.6,137.4,137.4
			C491.6,529.9,429.9,591.5,354.2,591.5z M354.2,328.1c-69.5,0-126,56.5-126,126c0,69.5,56.5,126.1,126,126.1
			c69.5,0,126-56.5,126-126.1C480.2,384.6,423.7,328.1,354.2,328.1z"/>
	</g>
	<g>
		<path fill="#FFD274" d="M876.2,174l-31.2,5.6c-11.5-20.1-28.8-36.8-50.4-47.2l3.5-31.6c-6.8-2.7-13.8-4.9-21.1-6.6
			c-7.3-1.7-14.6-2.8-21.9-3.4l-10.8,29.9c-24-0.2-46.9,7.1-66.1,20l-25.6-18.8c-11.5,9.1-21.8,19.9-30.2,32.2l20.4,24.3
			c-5.8,9.9-10.2,20.8-12.9,32.5c-2.7,11.7-3.6,23.4-2.8,34.8l-29.1,12.7c2.1,14.8,6.5,29,12.8,42.2l31.3-5.6
			c11.5,20.1,28.8,36.8,50.4,47.2l-3.5,31.6c6.8,2.7,13.8,4.9,21.1,6.6c7.3,1.7,14.6,2.8,21.9,3.4l10.8-29.9
			c24,0.2,46.9-7.1,66.1-20l25.6,18.8c11.5-9.1,21.7-19.9,30.2-32.2l-20.4-24.3c5.8-9.9,10.2-20.8,12.9-32.5
			c2.7-11.7,3.6-23.4,2.8-34.8l29.1-12.7C886.9,201.5,882.6,187.3,876.2,174z M815.3,254c-9.2,39.6-48.8,64.2-88.4,55
			c-39.6-9.2-64.2-48.8-55-88.5c9.2-39.6,48.8-64.2,88.4-55C799.9,174.8,824.5,214.4,815.3,254z"/>
		<path d="M732.1,389.5c-0.2,0-0.3,0-0.5,0c-7.6-0.6-15.3-1.8-22.7-3.5c-7.4-1.7-14.8-4-21.9-6.9c-2.4-0.9-3.8-3.4-3.5-5.9l3.1-27.7
			c-19.5-10.2-35.7-25.4-47.2-44.2l-27.4,4.9c-2.5,0.4-5-0.8-6.1-3.1c-6.6-13.9-11.1-28.6-13.3-43.9c-0.4-2.5,1-5,3.3-6l25.5-11.1
			c-0.4-10.9,0.6-21.8,3.1-32.5c2.5-10.7,6.4-20.9,11.6-30.5l-17.9-21.3c-1.6-1.9-1.8-4.8-0.3-6.9c8.7-12.7,19.2-23.9,31.4-33.4
			c2-1.6,4.8-1.6,6.9-0.1l22.4,16.5c18.7-11.8,39.9-18.2,61.9-18.8l9.5-26.2c0.9-2.4,3.2-3.9,5.8-3.7c7.6,0.6,15.3,1.8,22.7,3.5
			c7.4,1.7,14.8,4,21.9,6.9c2.4,0.9,3.8,3.4,3.5,5.9l-3.1,27.7c19.5,10.2,35.7,25.4,47.2,44.2l27.4-4.9c2.5-0.5,5,0.8,6.1,3.1
			c6.6,13.9,11.1,28.7,13.3,43.9c0.4,2.5-1,5-3.3,6l-25.5,11.1c0.4,10.9-0.6,21.8-3.1,32.5c-2.5,10.7-6.4,21-11.6,30.5l17.9,21.3
			c1.6,2,1.8,4.8,0.3,6.9c-8.7,12.7-19.3,23.9-31.4,33.4c-2,1.6-4.8,1.6-6.9,0.1l-22.4-16.5c-18.7,11.8-39.9,18.2-61.9,18.8
			l-9.5,26.2C736.6,388,734.4,389.5,732.1,389.5z M695.2,370.1c5.4,1.9,10.8,3.6,16.3,4.8c5.5,1.3,11.1,2.2,16.8,2.9l9.3-25.7
			c0.8-2.2,2.9-3.7,5.3-3.7c0,0,0,0,0,0c0,0,0,0,0,0c22.9,0,44.4-6.6,62.9-19.1c2-1.4,4.6-1.3,6.5,0.1l22,16.2
			c8.7-7.3,16.5-15.6,23.2-24.7L840,299.9c-1.5-1.8-1.8-4.5-0.6-6.5c5.6-9.6,9.7-19.9,12.3-30.9c2.6-10.9,3.4-22.1,2.6-33.1
			c-0.2-2.4,1.2-4.6,3.4-5.6l25-11c-2-11.2-5.3-22.1-9.9-32.5l-26.9,4.8c-2.4,0.4-4.7-0.7-5.9-2.8c-11.2-19.6-27.7-35.1-47.9-44.9
			c-2.2-1-3.4-3.3-3.2-5.7l3-27.2c-5.3-1.9-10.8-3.6-16.3-4.9c-5.5-1.3-11.1-2.2-16.8-2.9l-9.3,25.7c-0.8,2.2-2.9,3.7-5.3,3.7
			c0,0,0,0,0,0c0,0,0,0,0,0c-22.9,0-44.4,6.6-62.9,19.1c-2,1.3-4.6,1.3-6.5-0.1l-22-16.2c-8.7,7.3-16.5,15.6-23.2,24.7l17.6,20.9
			c1.5,1.8,1.8,4.4,0.6,6.5c-5.6,9.6-9.8,20-12.3,30.9c-2.6,10.9-3.4,22.1-2.7,33.2c0.2,2.4-1.2,4.6-3.4,5.6l-25,11
			c2,11.2,5.3,22.1,9.9,32.5l26.9-4.8c2.3-0.4,4.7,0.7,5.9,2.8c11.2,19.6,27.7,35.1,47.9,44.9c2.2,1,3.4,3.3,3.2,5.7L695.2,370.1z
			 M743.7,316.6c-6.1,0-12.1-0.7-18.1-2.1c-20.6-4.8-38.2-17.4-49.3-35.4c-11.2-18-14.7-39.3-9.9-59.9c8.4-36.1,40.2-61.3,77.2-61.3
			c6.1,0,12.1,0.7,18.1,2.1c20.6,4.8,38.2,17.4,49.3,35.4c11.2,18,14.7,39.3,9.9,59.9C812.4,291.4,780.7,316.6,743.7,316.6z
			 M743.5,169.3c-31.7,0-58.9,21.6-66.1,52.5c-4.1,17.7-1.1,35.9,8.5,51.3c9.6,15.4,24.6,26.2,42.3,30.3c5.1,1.2,10.3,1.8,15.5,1.8
			c31.7,0,58.9-21.6,66.1-52.6c4.1-17.7,1.1-35.9-8.5-51.3c-9.6-15.4-24.6-26.2-42.3-30.3C753.9,169.9,748.7,169.3,743.5,169.3z"/>
	</g>
	<g>
		<path d="M608.3,694.4c-1.4,0-2.8-0.5-3.8-1.5c-2.3-2.1-2.4-5.7-0.3-8C673.3,610,705.7,505,690.7,404c-0.5-3.1,1.7-6,4.8-6.4
			c3-0.4,6,1.7,6.4,4.8c15.5,104.4-17.9,212.9-89.4,290.3C611.3,693.8,609.8,694.4,608.3,694.4z"/>
	</g>
	<g>
		<path d="M595,211.5c-1.4,0-2.8-0.5-4-1.6c-83.1-80.7-204.7-113.8-317.2-86.4c-3,0.8-6.1-1.1-6.8-4.2c-0.7-3,1.1-6.1,4.2-6.9
			c116.3-28.3,241.9,5.8,327.8,89.2c2.2,2.2,2.3,5.8,0.1,8C597.9,211,596.5,211.5,595,211.5z"/>
	</g>
	<g>
		<g>
			<path d="M348.2,561.5v-27.2l-3.3-0.1c-13.4-0.2-28-4.1-37.3-9.8l4.2-11.6c11,6.3,24.3,9.9,37.1,9.9c20.9,0,35.5-12.3,35.5-29.9
				c0-19.4-16.5-28.7-32.6-35.3c-30.5-12-42.4-24.2-42.4-43.5c0-20.6,14.9-36.3,37.9-40.1l2.8-0.5v-26.8h9.9v26.1l3.3,0.1
				c11.9,0.4,22,2.9,31,7.6l-4.3,11.4c-7.6-3.9-17.8-7.7-32.2-7.7c-22.1,0-32,13.4-32,26.6c0,16.2,12,24.2,35.6,33.9
				c28.2,11.5,39.7,24.9,39.7,46.3c0,21.9-15.6,38.6-39.8,42.5l-2.8,0.5v27.6H348.2z"/>
		</g>
	</g>
	<g>
		<path d="M1031,656.3c-102.4,0-198-45.9-262.5-125.9c-1.7-2.1-1.7-5,0-7.1c64.4-80,160.1-125.9,262.5-125.9
			c102.4,0,198,45.9,262.5,125.9c1.7,2.1,1.7,5,0,7.1C1229,610.4,1133.4,656.3,1031,656.3z M780.3,526.8
			c62.2,75.1,153.3,118.1,250.7,118.1c97.4,0,188.5-43,250.7-118.1c-62.2-75.1-153.3-118.1-250.7-118.1
			C933.6,408.8,842.5,451.7,780.3,526.8z"/>
	</g>
	<g>
		<path d="M958.3,345.8c-1.1,0-2.2-0.3-3.2-1c-1.5-1.1-2.5-2.8-2.5-4.7V205.9c0-56.3,45.8-102.1,102.1-102.1h138
			c56.3,0,102.1,45.8,102.1,102.1c0,56.3-45.8,102.1-102.1,102.1h-136.9l-95.4,37.5C959.7,345.7,959,345.8,958.3,345.8z
			 M1054.7,115.1c-50,0-90.7,40.7-90.7,90.7v126l88.7-34.9c0.7-0.3,1.4-0.4,2.1-0.4h138c50,0,90.7-40.7,90.7-90.7
			c0-50-40.7-90.7-90.7-90.7H1054.7z"/>
	</g>
	<g>
		<circle fill="#2DA9FF" cx="1031" cy="526.8" r="92.6"/>
		<path d="M1031,625.2c-54.2,0-98.3-44.1-98.3-98.3c0-54.2,44.1-98.3,98.3-98.3c54.2,0,98.3,44.1,98.3,98.3
			C1129.3,581.1,1085.2,625.2,1031,625.2z M1031,439.9c-48,0-87,39-87,87c0,48,39,87,87,87c48,0,87-39,87-87
			C1118,478.9,1079,439.9,1031,439.9z"/>
	</g>
	<g>
		<g>
			<g>
				<path fill="#F1F2F2" d="M808.9,1329.1H544.3c0,0-80.8,41.8-24.1,114.1h156.4h0H833C889.7,1370.9,808.9,1329.1,808.9,1329.1z"/>
				<path d="M833,1448.9H520.2c-1.7,0-3.4-0.8-4.5-2.2c-17.9-22.8-24.6-45.3-20-66.8c7.8-35.8,44.4-55.1,45.9-55.9
					c0.8-0.4,1.7-0.6,2.6-0.6h264.6c0.9,0,1.8,0.2,2.6,0.6c1.6,0.8,38.1,20.1,45.9,55.9c4.7,21.5-2,43.9-20,66.8
					C836.4,1448.1,834.8,1448.9,833,1448.9z M523,1437.5h307.2c14.5-19.3,19.9-37.8,16.1-55.2c-6-27.4-33-44.2-38.9-47.6H545.8
					c-5.9,3.4-33,20.4-38.9,47.7C503.1,1399.7,508.5,1418.3,523,1437.5z"/>
			</g>
			<g>
				<path d="M729.6,978.9H623.6c-1,0-2.1-0.3-2.9-0.8c-32.5-19.8-51.8-54.2-51.8-92c0-59.4,48.3-107.7,107.7-107.7
					c59.4,0,107.7,48.3,107.7,107.7c0,37.8-19.4,72.2-51.8,92C731.6,978.6,730.6,978.9,729.6,978.9z M625.3,967.5H728
					c28.2-17.8,45-48.2,45-81.5c0-53.2-43.3-96.4-96.4-96.4c-53.2,0-96.4,43.2-96.4,96.4C580.2,919.4,597,949.7,625.3,967.5z"/>
			</g>
			<g>
				<path d="M733.8,1180.9H619.4c-1.9,0-3.8-1-4.8-2.6c-1-1.6-1.2-3.7-0.3-5.5c23.4-49.6,14.6-102.3,7.2-129.3
					c-0.5-1.7-0.1-3.5,1-4.9c1.1-1.4,2.7-2.2,4.5-2.2h99.2c1.8,0,3.4,0.8,4.5,2.2c1.1,1.4,1.4,3.2,1,4.9
					c-7.4,27-16.2,79.7,7.2,129.3c0.8,1.8,0.7,3.8-0.3,5.5C737.5,1179.9,735.7,1180.9,733.8,1180.9z M628.1,1169.6h97
					c-18.8-46.3-13-93.5-6.2-121.9h-84.6C641.1,1076.1,646.9,1123.3,628.1,1169.6z"/>
			</g>
			<g>
				<path fill="#F1F2F2" d="M749,973.2h-19.4H623.6h-19.4c-19,0-34.4,15.4-34.4,34.4c0,19,15.4,34.4,34.4,34.4H627h99.2H749
					c19,0,34.4-15.4,34.4-34.4C783.4,988.6,768,973.2,749,973.2z"/>
				<path d="M749,1047.7H604.2c-22.1,0-40.1-18-40.1-40.1c0-22.1,18-40.1,40.1-40.1H749c22.1,0,40.1,18,40.1,40.1
					C789.1,1029.7,771.1,1047.7,749,1047.7z M604.2,978.9c-15.8,0-28.7,12.9-28.7,28.7c0,15.8,12.9,28.7,28.7,28.7H749
					c15.8,0,28.7-12.9,28.7-28.7c0-15.8-12.9-28.7-28.7-28.7H604.2z"/>
			</g>
			<g>
				<path fill="#F1F2F2" d="M762.1,1175.3h-28.4H619.4h-28.4c0,0-26.9,21.3,0,53.2h171.1C789.1,1196.5,762.1,1175.3,762.1,1175.3z"
					/>
				<path d="M762.1,1234.1H591.1c-1.7,0-3.3-0.7-4.3-2c-9.9-11.7-14.3-23.6-13.1-35.3c1.6-16.1,13.4-25.6,13.9-26
					c1-0.8,2.2-1.2,3.5-1.2h171.1c1.3,0,2.5,0.4,3.5,1.2c0.5,0.4,12.3,9.9,13.9,26c1.2,11.7-3.2,23.6-13.1,35.3
					C765.4,1233.4,763.8,1234.1,762.1,1234.1z M593.8,1222.7h165.7c6.7-8.5,9.6-16.8,8.9-24.7c-0.8-8.5-5.9-14.7-8.4-17.1H593.3
					c-2.4,2.5-7.6,8.6-8.4,17.1C584.1,1205.9,587.1,1214.2,593.8,1222.7z"/>
			</g>
			<g>
				<path d="M808.9,1334.7H544.3c-1.9,0-3.7-1-4.8-2.6c-1-1.6-1.2-3.7-0.4-5.4l46.8-100.7c0.9-2,2.9-3.3,5.1-3.3h171.1
					c2.2,0,4.2,1.3,5.1,3.3l46.8,100.7c0.8,1.8,0.7,3.8-0.4,5.4C812.7,1333.8,810.9,1334.7,808.9,1334.7z M553.2,1323.4H800
					l-41.5-89.3H594.7L553.2,1323.4z"/>
			</g>
		</g>
		<g>
			<path d="M866.1,1485.7h-379c-3.1,0-5.7-2.5-5.7-5.7s2.5-5.7,5.7-5.7h379c3.1,0,5.7,2.5,5.7,5.7S869.2,1485.7,866.1,1485.7z"/>
		</g>
	</g>
	<g>
		<path d="M938.4,1067.9h-120c-3.1,0-5.7-2.5-5.7-5.7c0-3.1,2.5-5.7,5.7-5.7H936l185-185c2.2-2.2,5.8-2.2,8,0c2.2,2.2,2.2,5.8,0,8
			l-186.7,186.7C941.3,1067.3,939.9,1067.9,938.4,1067.9z"/>
	</g>
	<g>
		<path d="M1200.2,911c-62.5,0-113.4-50.9-113.4-113.4s50.9-113.4,113.4-113.4c62.5,0,113.4,50.9,113.4,113.4S1262.7,911,1200.2,911
			z M1200.2,695.5c-56.3,0-102.1,45.8-102.1,102.1s45.8,102.1,102.1,102.1s102.1-45.8,102.1-102.1S1256.5,695.5,1200.2,695.5z"/>
	</g>
	<g>
		<path d="M1092.3,1334.9c-1.5,0-2.9-0.6-4-1.7L936,1180.9H818.4c-3.1,0-5.7-2.5-5.7-5.7c0-3.1,2.5-5.7,5.7-5.7h120
			c1.5,0,2.9,0.6,4,1.7l154,154c2.2,2.2,2.2,5.8,0,8C1095.2,1334.3,1093.8,1334.9,1092.3,1334.9z"/>
	</g>
	<g>
		<path d="M544.3,1067.9H433.7c-1.4,0-2.8-0.5-3.9-1.5L260.7,909.5c-2.3-2.1-2.4-5.7-0.3-8c2.1-2.3,5.7-2.4,8-0.3L436,1056.5h108.3
			c3.1,0,5.7,2.5,5.7,5.7C550,1065.4,547.4,1067.9,544.3,1067.9z"/>
	</g>
	<g>
		<path d="M284.7,1330c-1.5,0-2.9-0.6-4-1.7c-2.2-2.2-2.2-5.8,0-8l149.1-149.1c1.1-1.1,2.5-1.7,4-1.7h110.6c3.1,0,5.7,2.5,5.7,5.7
			c0,3.1-2.5,5.7-5.7,5.7H436.1l-147.4,147.4C287.6,1329.4,286.1,1330,284.7,1330z"/>
	</g>
	<g>
		<path fill="#F1F2F2" d="M284.7,854.3c0,38.8-31.5,70.3-70.3,70.3c-38.8,0-70.3-31.5-70.3-70.3c0-38.8,31.5-70.3,70.3-70.3
			C253.2,784,284.7,815.5,284.7,854.3z"/>
		<path d="M214.4,930.3c-41.9,0-76-34.1-76-76s34.1-76,76-76c41.9,0,76,34.1,76,76S256.3,930.3,214.4,930.3z M214.4,789.7
			c-35.6,0-64.6,29-64.6,64.6c0,35.6,29,64.6,64.6,64.6s64.6-29,64.6-64.6C279,818.7,250,789.7,214.4,789.7z"/>
	</g>
	<g>
		<path fill="#FF857A" d="M307.6,1385.9c0,46-37.3,83.3-83.3,83.3c-46,0-83.3-37.3-83.3-83.3c0-46,37.3-83.3,83.3-83.3
			C270.3,1302.6,307.6,1339.9,307.6,1385.9z"/>
		<path d="M224.3,1474.8c-49,0-88.9-39.9-88.9-88.9c0-49,39.9-88.9,88.9-88.9c49,0,88.9,39.9,88.9,88.9
			C313.3,1434.9,273.4,1474.8,224.3,1474.8z M224.3,1308.3c-42.8,0-77.6,34.8-77.6,77.6c0,42.8,34.8,77.6,77.6,77.6
			c42.8,0,77.6-34.8,77.6-77.6C301.9,1343.1,267.1,1308.3,224.3,1308.3z"/>
	</g>
	<g>
		<rect x="1245.6" y="1069.8" fill="#2DA9FF" width="43.5" height="132.1"/>
		<path d="M1289,1207.5h-43.5c-3.1,0-5.7-2.5-5.7-5.7v-132.1c0-3.1,2.5-5.7,5.7-5.7h43.5c3.1,0,5.7,2.5,5.7,5.7v132.1
			C1294.7,1205,1292.2,1207.5,1289,1207.5z M1251.2,1196.2h32.1v-120.7h-32.1V1196.2z"/>
	</g>
	<g>
		<path fill="#FFFFFF" d="M1200,1036.8v-40c0-0.8-0.5-1.5-1.3-1.6c-0.1,0-4.9-1-11.2-1c-16.4,0-25.5,6.6-25.5,18.6v64.7h-54.2
			c-11.7,0-21.3,9.5-21.3,21.2v75c0,11.7,9.5,21.3,21.3,21.3h137.8v-117.5L1200,1036.8z"/>
		<path d="M1245.6,1200.6h-137.8c-14.8,0-26.9-12.1-26.9-26.9v-75c0-14.8,12.1-26.9,26.9-26.9h48.5v-59c0-15.2,11.7-24.2,31.2-24.2
			c4.8,0,9.7,0.5,12.1,1.1l0,0c3.5,0.6,6.1,3.6,6.1,7.2v37.5l43.7,39c1.2,1.1,1.9,2.6,1.9,4.2V1195
			C1251.2,1198.1,1248.7,1200.6,1245.6,1200.6z M1107.8,1083.2c-8.6,0-15.6,7-15.6,15.6v75c0,8.6,7,15.6,15.6,15.6h132.1V1080
			l-43.7-39c-1.2-1.1-1.9-2.6-1.9-4.2v-36.5c-1.7-0.2-4.1-0.4-6.8-0.4c-13.1,0-19.8,4.3-19.8,12.9v64.7c0,3.1-2.5,5.7-5.7,5.7
			H1107.8z"/>
	</g>
	<g>
		<g>
			<path fill="#F1F2F2" d="M1219,779.4c0,22-17.8,39.8-39.8,39.8c-22,0-39.8-17.8-39.8-39.8c0-22,17.8-39.8,39.8-39.8
				C1201.2,739.6,1219,757.4,1219,779.4z"/>
			<path d="M1179.3,824.8c-25.1,0-45.4-20.4-45.4-45.4c0-25.1,20.4-45.4,45.4-45.4c25.1,0,45.5,20.4,45.5,45.4
				C1224.7,804.4,1204.3,824.8,1179.3,824.8z M1179.3,745.3c-18.8,0-34.1,15.3-34.1,34.1c0,18.8,15.3,34.1,34.1,34.1
				c18.8,0,34.1-15.3,34.1-34.1C1213.4,760.6,1198.1,745.3,1179.3,745.3z"/>
		</g>
		<g>
			<path d="M1253.1,858.9c-1.5,0-2.9-0.6-4-1.7l-45.8-45.7c-2.2-2.2-2.2-5.8,0-8c2.2-2.2,5.8-2.2,8,0l45.8,45.7c2.2,2.2,2.2,5.8,0,8
				C1256,858.4,1254.6,858.9,1253.1,858.9z"/>
		</g>
	</g>
	<g>
		<path fill="#FF857A" d="M866.6,1024.9V792.8c0-9.7-7.9-17.7-17.7-17.7c-9.8,0-17.7,7.9-17.7,17.7v232.1H866.6z"/>
		<path d="M866.6,1030.6h-35.3c-3.1,0-5.7-2.5-5.7-5.7V792.8c0-12.9,10.5-23.3,23.3-23.3c12.9,0,23.3,10.5,23.3,23.3v232.1
			C872.2,1028,869.7,1030.6,866.6,1030.6z M836.9,1019.2h24V792.8c0-6.6-5.4-12-12-12c-6.6,0-12,5.4-12,12V1019.2z"/>
	</g>
	<g>
		<path fill="#FF857A" d="M943.1,1024.9V815.2c0-9.7-7.9-17.7-17.7-17.7c-9.8,0-17.7,7.9-17.7,17.7v209.6H943.1z"/>
		<path d="M943.1,1030.6h-35.3c-3.1,0-5.7-2.5-5.7-5.7V815.2c0-12.9,10.5-23.3,23.3-23.3c12.9,0,23.3,10.5,23.3,23.3v209.6
			C948.8,1028,946.3,1030.6,943.1,1030.6z M913.5,1019.2h24v-204c0-6.6-5.4-12-12-12c-6.6,0-12,5.4-12,12V1019.2z"/>
	</g>
	<g>
		<path fill="#FF857A" d="M1019.7,924.8V727.2c0-9.7-7.9-17.7-17.7-17.7c-9.8,0-17.7,7.9-17.7,17.7v235.6L1019.7,924.8z"/>
		<path d="M984.4,968.5c-0.7,0-1.4-0.1-2.1-0.4c-2.2-0.9-3.6-2.9-3.6-5.3V727.2c0-12.9,10.5-23.3,23.3-23.3
			c12.9,0,23.3,10.5,23.3,23.3v197.6c0,1.4-0.5,2.8-1.5,3.9l-35.3,38C987.4,967.8,985.9,968.5,984.4,968.5z M1002,715.2
			c-6.6,0-12,5.4-12,12v221.2l24-25.8V727.2C1014,720.6,1008.6,715.2,1002,715.2z"/>
	</g>
	<g>
		<path d="M1019.4,567.5c-1.5,0-2.9-0.6-4-1.7l-35-35c-2.2-2.2-2.2-5.8,0-8s5.8-2.2,8,0l31,31l103.2-103.2c2.2-2.2,5.8-2.2,8,0
			c2.2,2.2,2.2,5.8,0,8l-107.2,107.2C1022.3,567,1020.8,567.5,1019.4,567.5z"/>
	</g>
	<g>
		<path fill="#FF857A" d="M1044.7,205.9c0,13.8-11.2,25-25.1,25s-25-11.2-25-25s11.2-25,25-25S1044.7,192,1044.7,205.9z"/>
		<path d="M1019.7,236.6c-16.9,0-30.7-13.8-30.7-30.7s13.8-30.7,30.7-30.7c16.9,0,30.7,13.8,30.7,30.7S1036.6,236.6,1019.7,236.6z
			 M1019.7,186.5c-10.7,0-19.4,8.7-19.4,19.4c0,10.7,8.7,19.4,19.4,19.4c10.7,0,19.4-8.7,19.4-19.4
			C1039.1,195.2,1030.4,186.5,1019.7,186.5z"/>
	</g>
	<g>
		<path fill="#FF857A" d="M1148.7,205.9c0,13.8-11.2,25-25,25s-25.1-11.2-25.1-25s11.2-25,25.1-25S1148.7,192,1148.7,205.9z"/>
		<path d="M1123.6,236.6c-16.9,0-30.7-13.8-30.7-30.7s13.8-30.7,30.7-30.7c16.9,0,30.7,13.8,30.7,30.7S1140.6,236.6,1123.6,236.6z
			 M1123.6,186.5c-10.7,0-19.4,8.7-19.4,19.4c0,10.7,8.7,19.4,19.4,19.4c10.7,0,19.4-8.7,19.4-19.4
			C1143,195.2,1134.3,186.5,1123.6,186.5z"/>
	</g>
	<g>
		<path fill="#FF857A" d="M1252.7,205.9c0,13.8-11.2,25-25.1,25c-13.8,0-25-11.2-25-25s11.2-25,25-25
			C1241.4,180.8,1252.7,192,1252.7,205.9z"/>
		<path d="M1227.6,236.6c-16.9,0-30.7-13.8-30.7-30.7s13.8-30.7,30.7-30.7c16.9,0,30.7,13.8,30.7,30.7S1244.5,236.6,1227.6,236.6z
			 M1227.6,186.5c-10.7,0-19.4,8.7-19.4,19.4c0,10.7,8.7,19.4,19.4,19.4c10.7,0,19.4-8.7,19.4-19.4
			C1247,195.2,1238.3,186.5,1227.6,186.5z"/>
	</g>
	<g>
		<path d="M1289,1075.4c-3.1,0-5.7-2.5-5.7-5.7v-96.6c0-3.1,2.5-5.7,5.7-5.7c3.1,0,5.7,2.5,5.7,5.7v96.6
			C1294.7,1072.9,1292.2,1075.4,1289,1075.4z"/>
	</g>
	<g>
		<path d="M1289,1255.5c-3.1,0-5.7-2.5-5.7-5.7v-47.9c0-3.1,2.5-5.7,5.7-5.7c3.1,0,5.7,2.5,5.7,5.7v47.9
			C1294.7,1252.9,1292.2,1255.5,1289,1255.5z"/>
	</g>
	<g>
		<g>
			<path fill="#009E6A" d="M1191.9,1317.4c-13-8.6-28.6-13.7-45.4-13.7c-45.5,0-82.4,36.9-82.4,82.4h82.4L1191.9,1317.4z"/>
			<path d="M1146.5,1391.8h-82.4c-3.1,0-5.7-2.5-5.7-5.7c0-48.6,39.5-88.1,88.1-88.1c17.3,0,34.1,5.1,48.5,14.6
				c2.6,1.7,3.3,5.2,1.6,7.9l-45.4,68.7C1150.2,1390.8,1148.4,1391.8,1146.5,1391.8z M1070,1380.5h73.5l40.5-61.3
				c-11.4-6.4-24.3-9.8-37.4-9.8C1106.1,1309.4,1072.9,1340.8,1070,1380.5z"/>
		</g>
		<g>
			<path fill="#FFD274" d="M1064.1,1386.1c0,45.5,36.9,82.4,82.4,82.4c22.8,0,43.4-9.2,58.3-24.1l-58.3-58.3H1064.1z"/>
			<path d="M1146.5,1474.2c-48.6,0-88.1-39.5-88.1-88.1c0-3.1,2.5-5.7,5.7-5.7h82.4c1.5,0,2.9,0.6,4,1.7l58.3,58.3
				c2.2,2.2,2.2,5.8,0,8C1192.2,1465.1,1170,1474.2,1146.5,1474.2z M1070,1391.8c2.9,39.7,36.1,71.1,76.5,71.1
				c18.6,0,36.2-6.6,50.1-18.6l-52.5-52.5H1070z"/>
		</g>
		<g>
			<path fill="#FF857A" d="M1191.9,1317.4l-45.4,68.7l58.3,58.3c14.9-14.9,24.1-35.5,24.1-58.3
				C1228.9,1357.4,1214.2,1332.1,1191.9,1317.4z"/>
			<path d="M1204.8,1450.1c-1.5,0-2.9-0.6-4-1.7l-58.3-58.3c-1.9-1.9-2.2-4.9-0.7-7.1l45.4-68.7c0.8-1.3,2.1-2.1,3.6-2.4
				c1.5-0.3,3,0,4.3,0.8c24.8,16.4,39.6,43.8,39.6,73.5c0,23.5-9.2,45.6-25.8,62.3C1207.7,1449.5,1206.2,1450.1,1204.8,1450.1z
				 M1153.8,1385.4l50.8,50.8c12-13.9,18.6-31.5,18.6-50.1c0-23.9-11.1-46.2-29.8-60.7L1153.8,1385.4z"/>
		</g>
	</g>
	<g>
		<polygon fill="#FFD274" points="196.5,1209 108.2,1154.9 196.5,1100.7 284.7,1154.9 		"/>
		<path d="M196.5,1214.7c-1,0-2.1-0.3-3-0.8l-88.2-54.2c-1.7-1-2.7-2.9-2.7-4.8s1-3.8,2.7-4.8l88.2-54.2c1.8-1.1,4.1-1.1,5.9,0
			l88.2,54.2c1.7,1,2.7,2.9,2.7,4.8s-1,3.8-2.7,4.8l-88.2,54.2C198.5,1214.4,197.5,1214.7,196.5,1214.7z M119.1,1154.9l77.4,47.5
			l77.4-47.5l-77.4-47.5L119.1,1154.9z"/>
	</g>
	<g>
		<polygon fill="#FFD274" points="196.5,1162.8 108.2,1108.6 196.5,1054.4 284.7,1108.6 		"/>
		<path d="M196.5,1168.5c-1,0-2.1-0.3-3-0.8l-88.2-54.2c-1.7-1-2.7-2.9-2.7-4.8s1-3.8,2.7-4.8l88.2-54.2c1.8-1.1,4.1-1.1,5.9,0
			l88.2,54.2c1.7,1,2.7,2.9,2.7,4.8s-1,3.8-2.7,4.8l-88.2,54.2C198.5,1168.2,197.5,1168.5,196.5,1168.5z M119.1,1108.6l77.4,47.5
			l77.4-47.5l-77.4-47.5L119.1,1108.6z"/>
	</g>
	<g>
		<polygon fill="#FFD274" points="196.5,1116.6 108.2,1062.4 196.5,1008.2 284.7,1062.4 		"/>
		<path d="M196.5,1122.3c-1,0-2.1-0.3-3-0.8l-88.2-54.2c-1.7-1-2.7-2.9-2.7-4.8s1-3.8,2.7-4.8l88.2-54.2c1.8-1.1,4.1-1.1,5.9,0
			l88.2,54.2c1.7,1,2.7,2.9,2.7,4.8s-1,3.8-2.7,4.8l-88.2,54.2C198.5,1122,197.5,1122.3,196.5,1122.3z M119.1,1062.4l77.4,47.5
			l77.4-47.5l-77.4-47.5L119.1,1062.4z"/>
	</g>
	<g>
		<path d="M196.5,1068.1c-3.1,0-5.7-2.5-5.7-5.7v-89.2c0-3.1,2.5-5.7,5.7-5.7s5.7,2.5,5.7,5.7v89.2
			C202.1,1065.6,199.6,1068.1,196.5,1068.1z"/>
	</g>
	<g>
		<path d="M394,1114.3h-73.7c-3.1,0-5.7-2.5-5.7-5.7s2.5-5.7,5.7-5.7H394c3.1,0,5.7,2.5,5.7,5.7S397.2,1114.3,394,1114.3z"/>
	</g>
	<g>
		<path d="M196.5,1255.5c-3.1,0-5.7-2.5-5.7-5.7V1209c0-3.1,2.5-5.7,5.7-5.7s5.7,2.5,5.7,5.7v40.7
			C202.1,1252.9,199.6,1255.5,196.5,1255.5z"/>
	</g>
	<g>
		<path d="M214.4,892.6c-3.1,0-5.7-2.5-5.7-5.7v-65.2c0-3.1,2.5-5.7,5.7-5.7s5.7,2.5,5.7,5.7v65.2C220,890,217.5,892.6,214.4,892.6z
			"/>
	</g>
	<g>
		<path d="M247,860h-65.2c-3.1,0-5.7-2.5-5.7-5.7s2.5-5.7,5.7-5.7H247c3.1,0,5.7,2.5,5.7,5.7S250.1,860,247,860z"/>
	</g>
	<g>
		<g>
			<path d="M381.9,1409.6c-1.5,0-2.9-0.6-4-1.7c-2.2-2.2-2.2-5.8,0-8l46.1-46.1c2.2-2.2,5.8-2.2,8,0c2.2,2.2,2.2,5.8,0,8l-46.1,46.1
				C384.8,1409.1,383.4,1409.6,381.9,1409.6z"/>
		</g>
		<g>
			<path d="M428,1409.6c-1.5,0-2.9-0.6-4-1.7l-46.1-46.1c-2.2-2.2-2.2-5.8,0-8c2.2-2.2,5.8-2.2,8,0l46.1,46.1c2.2,2.2,2.2,5.8,0,8
				C430.9,1409.1,429.5,1409.6,428,1409.6z"/>
		</g>
	</g>
	<g>
		<g>
			<path d="M861.7,1301.6c-1.5,0-2.9-0.6-4-1.7c-2.2-2.2-2.2-5.8,0-8l46.1-46.1c2.2-2.2,5.8-2.2,8,0c2.2,2.2,2.2,5.8,0,8l-46.1,46.1
				C864.6,1301,863.1,1301.6,861.7,1301.6z"/>
		</g>
		<g>
			<path d="M907.8,1301.6c-1.5,0-2.9-0.6-4-1.7l-46.1-46.1c-2.2-2.2-2.2-5.8,0-8c2.2-2.2,5.8-2.2,8,0l46.1,46.1c2.2,2.2,2.2,5.8,0,8
				C910.7,1301,909.3,1301.6,907.8,1301.6z"/>
		</g>
	</g>
	<g>
		<polygon fill="#FFFFFF" points="224.3,1340.2 239.2,1370.3 272.4,1375.1 248.3,1398.5 254,1431.5 224.3,1415.9 194.7,1431.5 
			200.3,1398.5 176.3,1375.1 209.5,1370.3 		"/>
		<path d="M194.7,1437.2c-1.2,0-2.3-0.4-3.3-1.1c-1.8-1.3-2.6-3.4-2.3-5.5l5.2-30.1l-21.9-21.3c-1.6-1.5-2.1-3.8-1.4-5.8
			c0.7-2.1,2.4-3.5,4.6-3.9l30.2-4.4l13.5-27.4c1.9-3.9,8.3-3.9,10.2,0l13.5,27.4l30.2,4.4c2.1,0.3,3.9,1.8,4.6,3.9
			c0.7,2,0.1,4.3-1.4,5.8l-21.9,21.3l5.2,30.1c0.4,2.1-0.5,4.3-2.3,5.5c-1.8,1.3-4.1,1.4-6,0.4l-27-14.2l-27,14.2
			C196.5,1437,195.6,1437.2,194.7,1437.2z M224.3,1410.3c0.9,0,1.8,0.2,2.6,0.7l19.5,10.3l-3.7-21.7c-0.3-1.8,0.3-3.7,1.6-5
			l15.8-15.4l-21.8-3.2c-1.8-0.3-3.4-1.4-4.3-3.1l-9.8-19.8l-9.7,19.8c-0.8,1.7-2.4,2.8-4.3,3.1l-21.8,3.2l15.8,15.4
			c1.3,1.3,1.9,3.2,1.6,5l-3.7,21.7l19.5-10.3C222.5,1410.5,223.4,1410.3,224.3,1410.3z"/>
	</g>
	<g>
		<path d="M365.7,892.6c-1.5,0-2.9-0.6-4-1.7c-2.2-2.2-2.2-5.8,0-8l88.5-88.5c2.2-2.2,5.8-2.2,8,0c2.2,2.2,2.2,5.8,0,8l-88.5,88.5
			C368.6,892,367.1,892.6,365.7,892.6z"/>
	</g>
	<g>
		<path d="M428,956.4c-1.5,0-2.9-0.6-4-1.7c-2.2-2.2-2.2-5.8,0-8l46.6-46.6c2.2-2.2,5.8-2.2,8,0c2.2,2.2,2.2,5.8,0,8l-46.6,46.6
			C430.9,955.8,429.5,956.4,428,956.4z"/>
	</g>
	<g>
		<polygon fill="#2DA9FF" points="458,887.3 503.6,875 491.4,920.7 		"/>
		<path d="M491.4,926.4c-1.5,0-2.9-0.6-4-1.7L454,891.3c-1.4-1.4-2-3.5-1.5-5.5c0.5-2,2.1-3.5,4-4l45.6-12.2c2-0.5,4.1,0,5.5,1.5
			c1.4,1.4,2,3.5,1.5,5.5l-12.2,45.7c-0.5,2-2.1,3.5-4,4C492.4,926.3,491.9,926.4,491.4,926.4z M468.9,890.2l19.5,19.5l7.2-26.7
			L468.9,890.2z"/>
	</g>
	<g>
		<polygon fill="#2DA9FF" points="436.3,781.9 481.9,769.7 469.7,815.3 		"/>
		<path d="M469.7,821c-1.5,0-2.9-0.6-4-1.7l-33.4-33.4c-1.4-1.4-2-3.5-1.5-5.5c0.5-2,2.1-3.5,4-4l45.6-12.2c2-0.5,4.1,0,5.5,1.5
			c1.4,1.4,2,3.5,1.5,5.5l-12.2,45.7c-0.5,2-2.1,3.5-4,4C470.7,820.9,470.2,821,469.7,821z M447.2,784.8l19.5,19.5l7.2-26.7
			L447.2,784.8z"/>
	</g>
	<g>
		<path d="M458,1284.4c-13.6,0-24.7-11.1-24.7-24.7s11.1-24.7,24.7-24.7c13.6,0,24.7,11.1,24.7,24.7S471.6,1284.4,458,1284.4z
			 M458,1246.4c-7.3,0-13.3,6-13.3,13.3c0,7.3,6,13.3,13.3,13.3s13.3-6,13.3-13.3C471.3,1252.4,465.3,1246.4,458,1246.4z"/>
	</g>
	<g>
		<path d="M962.1,1401.5c-13.6,0-24.7-11.1-24.7-24.7c0-13.6,11.1-24.7,24.7-24.7s24.7,11.1,24.7,24.7
			C986.8,1390.4,975.7,1401.5,962.1,1401.5z M962.1,1363.5c-7.3,0-13.3,6-13.3,13.3c0,7.3,6,13.3,13.3,13.3c7.3,0,13.3-6,13.3-13.3
			C975.4,1369.5,969.5,1363.5,962.1,1363.5z"/>
	</g>
	<g>
		<path d="M818.4,638.8h-30.2c-3.1,0-5.7-2.5-5.7-5.7c0-3.1,2.5-5.7,5.7-5.7h30.2c3.1,0,5.7,2.5,5.7,5.7
			C824.1,636.3,821.5,638.8,818.4,638.8z"/>
	</g>
	<g>
		<path d="M705.9,733.8H669c-3.1,0-5.7-2.5-5.7-5.7c0-3.1,2.5-5.7,5.7-5.7h36.9c3.1,0,5.7,2.5,5.7,5.7
			C711.6,731.3,709,733.8,705.9,733.8z"/>
	</g>
	<g>
		<path d="M818.4,694.4h-84.6c-3.1,0-5.7-2.5-5.7-5.7c0-3.1,2.5-5.7,5.7-5.7h84.6c3.1,0,5.7,2.5,5.7,5.7
			C824.1,691.9,821.5,694.4,818.4,694.4z"/>
	</g>
</g>
</svg>
